<svg xmlns="http://www.w3.org/2000/svg" xmlns:xlink="http://www.w3.org/1999/xlink" width="725pt" height="200pt" version="1.2" viewBox="0 0 725 200"><defs><symbol id="a" overflow="visible"><path d="M.484 0v-5.14h1.047V0Zm0 0" style="stroke:none"/></symbol><symbol id="b" overflow="visible"><path d="M.531 0v-5.14H2.72q.81 0 1.187.14.373.128.594.484.234.363.234.813-.002.58-.343.953c-.23.25-.57.414-1.016.484q.34.188.563.422.217.235.593.844l.625 1h-1.25l-.75-1.125q-.393-.593-.547-.75a.7.7 0 0 0-.312-.203q-.158-.061-.516-.063h-.218V0Zm1.031-2.969h.766q.75 0 .938-.062a.48.48 0 0 0 .28-.219.68.68 0 0 0 .11-.39.6.6 0 0 0-.14-.407.54.54 0 0 0-.375-.203q-.143-.03-.766-.031h-.812Zm0 0" style="stroke:none"/></symbol><symbol id="d" overflow="visible"><path d="m2.672-1.187.984.171a1.6 1.6 0 0 1-.594.813q-.41.28-1.03.281C1.381.078.905-.129.593-.547q-.361-.515-.36-1.281-.001-.938.485-1.453a1.58 1.58 0 0 1 1.219-.531q.825 0 1.312.546.482.551.453 1.688H1.234q.012.44.235.687a.78.78 0 0 0 .578.235q.233.001.39-.125.153-.124.235-.406m.062-1c-.011-.282-.09-.493-.234-.641a.64.64 0 0 0-.5-.235.67.67 0 0 0-.531.235c-.149.156-.219.371-.219.64Zm0 0" style="stroke:none"/></symbol><symbol id="e" overflow="visible"><path d="M1.25-2.594.36-2.75q.151-.545.515-.797.374-.264 1.094-.265.656.001.984.156c.219.105.367.242.453.406q.14.236.14.875l-.015 1.156q0 .486.047.719.045.235.172.5h-.969a1.4 1.4 0 0 1-.094-.297.3.3 0 0 1-.03-.11c-.18.169-.36.294-.548.376-.187.07-.39.11-.609.11Q.919.08.578-.235a1.03 1.03 0 0 1-.328-.782q-.002-.31.156-.562a1 1 0 0 1 .422-.375c.188-.094.445-.172.781-.234.47-.083.79-.165.97-.25v-.094c0-.188-.048-.32-.142-.406-.093-.083-.273-.126-.53-.126-.18 0-.321.04-.423.11a.8.8 0 0 0-.234.36m1.328.797a6 6 0 0 1-.61.156q-.408.095-.53.172a.42.42 0 0 0-.188.344q0 .222.14.375.154.14.407.14a.8.8 0 0 0 .5-.171.6.6 0 0 0 .234-.328q.047-.123.047-.485Zm0 0" style="stroke:none"/></symbol><symbol id="f" overflow="visible"><path d="M3.938 0h-.922v-.547q-.223.316-.532.469c-.21.101-.418.156-.625.156A1.42 1.42 0 0 1 .75-.437C.445-.781.297-1.257.297-1.875q-.001-.95.437-1.437.452-.5 1.125-.5c.414 0 .782.171 1.094.515V-5.14h.985ZM1.297-1.937q-.002.596.172.859.233.391.672.39.327.001.562-.296.248-.296.25-.86 0-.64-.234-.922a.73.73 0 0 0-.594-.296q-.346 0-.594.28-.234.282-.234.845m0 0" style="stroke:none"/></symbol><symbol id="g" overflow="visible"><path d="M1.453 0H.47v-3.734h.922v.53q.234-.374.422-.483a.75.75 0 0 1 .421-.126q.34 0 .657.188l-.313.86c-.168-.102-.32-.157-.453-.157a.58.58 0 0 0-.36.11q-.14.111-.234.406-.08.3-.078 1.25zm0 0" style="stroke:none"/></symbol><symbol id="h" overflow="visible"><path d="M.313-2.547q0-.78.234-1.312a2.5 2.5 0 0 1 .469-.703q.31-.312.672-.47c.32-.132.69-.202 1.109-.202q1.138 0 1.812.703.687.703.688 1.968c0 .836-.227 1.485-.672 1.954q-.676.703-1.812.703Q1.67.094.984-.61.312-1.313.313-2.547m1.062-.031q-.002.878.406 1.328c.27.305.614.453 1.032.453q.622.001 1.015-.437.406-.451.406-1.36-.002-.873-.39-1.312-.393-.437-1.031-.438c-.43 0-.778.149-1.047.438q-.392.438-.391 1.328m0 0" style="stroke:none"/></symbol><symbol id="i" overflow="visible"><path d="M.484-3.734h.922v.562q.186-.279.485-.453.31-.187.672-.187.654 0 1.109.515.452.504.453 1.406 0 .938-.453 1.454c-.305.343-.672.515-1.11.515Q2.247.076 2-.032a1.9 1.9 0 0 1-.531-.421v1.875H.484Zm.985 1.812q-.001.628.25.922.247.299.593.297a.74.74 0 0 0 .579-.266q.234-.28.234-.906 0-.593-.234-.875a.74.74 0 0 0-.594-.281.74.74 0 0 0-.594.281q-.234.283-.234.828m0 0" style="stroke:none"/></symbol><symbol id="j" overflow="visible"><path d="M2.219-3.734v.797h-.672v1.5q-.001.456.016.53.028.081.093.126.078.047.172.047.14 0 .39-.094l.095.766q-.347.14-.782.14-.269 0-.484-.078a.8.8 0 0 1-.328-.234.9.9 0 0 1-.125-.391C.57-.738.563-.969.563-1.312v-1.625H.108v-.797h.454v-.735l.984-.578v1.313zm0 0" style="stroke:none"/></symbol><symbol id="k" overflow="visible"><path d="M.516-4.234v-.907H1.5v.907zM.516 0v-3.734H1.5V0Zm0 0" style="stroke:none"/></symbol><symbol id="l" overflow="visible"><path d="M.438-3.734h.906v.515q.498-.593 1.172-.594c.238 0 .441.055.609.157q.262.143.438.437c.164-.195.343-.344.53-.437q.282-.154.61-.156.406 0 .688.171a.97.97 0 0 1 .437.485c.063.156.094.414.094.765V0h-.984v-2.125q0-.561-.094-.719a.47.47 0 0 0-.422-.219.66.66 0 0 0-.406.141.7.7 0 0 0-.25.375q-.08.234-.079.75V0h-.984v-2.047q-.002-.545-.062-.703a.46.46 0 0 0-.157-.234.55.55 0 0 0-.312-.079.72.72 0 0 0-.406.126.8.8 0 0 0-.266.359c-.055.156-.078.414-.078.765V0H.438Zm0 0" style="stroke:none"/></symbol><symbol id="m" overflow="visible"><path d="M.125 0v-.766l1.39-1.609q.341-.387.516-.562a5 5 0 0 1-.453.015L.25-2.906v-.828h3.094v.703l-1.438 1.64-.5.547q.422-.013.516-.015h1.531V0Zm0 0" style="stroke:none"/></symbol><symbol id="n" overflow="visible"><path d="M.516 0v-5.14h1.547L3-1.64l.922-3.5h1.562V0h-.968v-4.047L3.484 0h-1L1.47-4.047V0Zm0 0" style="stroke:none"/></symbol><symbol id="o" overflow="visible"><path d="M2.922-1.89v-.876h2.234v2.063c-.218.21-.539.398-.953.562a3.5 3.5 0 0 1-1.25.235q-.815 0-1.406-.344Q.949-.59.64-1.219a3.1 3.1 0 0 1-.297-1.375q0-.796.328-1.422a2.27 2.27 0 0 1 1-.953c.32-.176.734-.265 1.234-.265q.951 0 1.485.406c.363.273.597.64.703 1.11l-1.032.187a1.1 1.1 0 0 0-.421-.594 1.22 1.22 0 0 0-.735-.219c-.46 0-.824.149-1.094.438q-.39.423-.39 1.281-.002.907.406 1.375c.27.305.625.453 1.063.453.218 0 .437-.039.656-.125.219-.094.406-.195.562-.312v-.657zm0 0" style="stroke:none"/></symbol><symbol id="p" overflow="visible"><path d="M3.906 0h-.984v-1.906c0-.395-.024-.649-.063-.766a.564.564 0 0 0-.547-.39.8.8 0 0 0-.468.14.7.7 0 0 0-.282.375q-.062.236-.062.86V0H.516v-3.734h.906v.562c.32-.426.734-.64 1.234-.64.219 0 .414.042.594.124a.96.96 0 0 1 .406.297c.094.118.156.25.188.407q.06.236.062.672zm0 0" style="stroke:none"/></symbol><symbol id="q" overflow="visible"><path d="M.281-1.922q0-.48.235-.937.247-.47.687-.703.45-.249 1-.25.843 0 1.39.546c.364.368.548.829.548 1.391q-.001.844-.547 1.406-.55.549-1.375.547a2.3 2.3 0 0 1-.985-.219 1.6 1.6 0 0 1-.718-.687Q.28-1.278.28-1.922m1.016.063c0 .367.086.648.266.843q.263.299.656.297a.83.83 0 0 0 .64-.297c.176-.195.266-.484.266-.859q-.001-.545-.266-.828A.84.84 0 0 0 2.22-3a.85.85 0 0 0-.656.297c-.18.187-.266.469-.266.844m0 0" style="stroke:none"/></symbol><symbol id="r" overflow="visible"><path d="m.422.25 1.125.125q.03.2.14.281c.094.07.239.11.438.11q.389-.001.578-.125a.6.6 0 0 0 .203-.25q.03-.127.031-.453V-.61Q2.498 0 1.829 0C1.328 0 .93-.21.641-.64q-.344-.5-.344-1.25c0-.626.148-1.098.453-1.422q.452-.5 1.11-.5.701 0 1.14.609v-.531h.938v3.359c0 .438-.04.766-.11.984-.074.22-.18.383-.312.5a1.5 1.5 0 0 1-.532.297c-.218.07-.496.11-.828.11q-.938 0-1.344-.328a1.03 1.03 0 0 1-.39-.829zm.89-2.187c0 .398.07.687.22.875a.73.73 0 0 0 .577.265.79.79 0 0 0 .61-.281q.248-.282.25-.844-.002-.576-.25-.86a.74.74 0 0 0-.594-.28.74.74 0 0 0-.594.28c-.148.188-.218.47-.218.845m0 0" style="stroke:none"/></symbol><symbol id="s" overflow="visible"><path d="m.172-1.062.984-.157q.061.3.25.453.2.141.547.141.389 0 .578-.14a.31.31 0 0 0 .125-.266.32.32 0 0 0-.062-.188 1.1 1.1 0 0 0-.328-.125Q1.059-1.607.75-1.828q-.438-.293-.437-.844c0-.32.125-.594.375-.812.257-.22.656-.328 1.187-.328q.764.001 1.14.25.375.252.516.734l-.937.172a.57.57 0 0 0-.235-.328q-.157-.124-.468-.125c-.262 0-.45.039-.563.109a.24.24 0 0 0-.11.203q0 .111.095.188.138.093.921.28c.532.118.899.259 1.11.423.207.18.312.422.312.734q-.002.516-.437.89c-.281.243-.703.36-1.266.36Q1.184.078.75-.219a1.45 1.45 0 0 1-.578-.843m0 0" style="stroke:none"/></symbol><symbol id="t" overflow="visible"><path d="M5.156 0H4.031l-.453-1.172H1.531L1.11 0H0l2-5.14h1.11ZM3.25-2.031l-.703-1.906-.703 1.906Zm0 0" style="stroke:none"/></symbol><symbol id="u" overflow="visible"><path d="M.516 0v-5.14H1.5V0Zm0 0" style="stroke:none"/></symbol><symbol id="v" overflow="visible"><path d="m3.766-2.625-.97.172a.63.63 0 0 0-.233-.422.65.65 0 0 0-.438-.156q-.377.002-.594.25c-.148.168-.218.449-.218.844 0 .449.07.765.218.953.157.18.36.265.61.265q.279.001.453-.156.168-.153.25-.547l.969.156Q3.656-.59 3.234-.25c-.28.219-.664.328-1.14.328Q1.262.078.78-.437.296-.952.297-1.86.296-2.78.78-3.297q.498-.515 1.328-.515.669.002 1.079.296.402.3.578.891m0 0" style="stroke:none"/></symbol><symbol id="w" overflow="visible"><path d="m3.813-1.89 1.015.312q-.235.843-.781 1.266-.534.408-1.36.406Q1.657.094 1-.61.344-1.314.344-2.531q0-1.28.656-1.985.67-.716 1.75-.718.936 0 1.531.562.343.328.532.938l-1.032.25a1.12 1.12 0 0 0-.39-.625 1.04 1.04 0 0 0-.688-.235q-.581.001-.937.407c-.243.273-.36.714-.36 1.328q0 .984.344 1.406.358.408.922.406.421.002.719-.265.293-.265.422-.829m0 0" style="stroke:none"/></symbol><symbol id="x" overflow="visible"><path d="M1.688 0v-4.281H.155v-.86H4.25v.86H2.719V0Zm0 0" style="stroke:none"/></symbol><symbol id="y" overflow="visible"><path d="M.047 0 1.39-1.922.094-3.734h1.203l.672 1.03.687-1.03h1.156L2.548-1.97 3.937 0H2.72l-.75-1.156L1.203 0Zm0 0" style="stroke:none"/></symbol><symbol id="z" overflow="visible"><path d="M2.969 0v-.562q-.205.299-.531.468a1.5 1.5 0 0 1-.704.172c-.25 0-.476-.055-.671-.156Q.765-.248.625-.547C.539-.742.5-1.02.5-1.375v-2.36h.984v1.72c0 .523.016.843.047.968q.062.176.203.281a.63.63 0 0 0 .36.094c.164 0 .316-.039.453-.125a.77.77 0 0 0 .281-.344q.076-.217.078-1.015v-1.578h.985V0Zm0 0" style="stroke:none"/></symbol><symbol id="H" overflow="visible"><path d="M.469 0v-5.14h.984v1.843q.468-.515 1.094-.515.668 0 1.11.5.451.486.452 1.406 0 .954-.453 1.469-.455.515-1.094.515c-.218 0-.433-.055-.64-.156a1.35 1.35 0 0 1-.531-.469V0Zm.984-1.937q0 .579.188.843c.164.274.39.407.672.407a.71.71 0 0 0 .562-.282q.234-.28.234-.89c0-.414-.078-.72-.234-.907a.73.73 0 0 0-.594-.296.74.74 0 0 0-.594.28q-.234.282-.234.845m0 0" style="stroke:none"/></symbol><symbol id="I" overflow="visible"><path d="M.047-3.734h1.047l.89 2.656.875-2.656h1.016L2.563-.141l-.235.657a2.6 2.6 0 0 1-.25.484 1.1 1.1 0 0 1-.265.281c-.106.07-.231.13-.375.172-.149.04-.313.063-.5.063-.188 0-.375-.024-.563-.063L.281.687Q.515.719.703.72q.341-.002.5-.203.17-.188.266-.5zm0 0" style="stroke:none"/></symbol><symbol id="J" overflow="visible"><path d="M.516 0v-5.14h1.672c.632 0 1.046.027 1.234.077q.45.114.75.5c.195.262.297.594.297 1q-.001.47-.172.797-.175.33-.438.516c-.18.117-.359.195-.546.234q-.375.08-1.079.079h-.671V0Zm1.047-4.281v1.468h.562c.414 0 .691-.023.828-.078a.62.62 0 0 0 .313-.25.68.68 0 0 0 .125-.406A.62.62 0 0 0 3.219-4a.68.68 0 0 0-.406-.234q-.189-.047-.75-.047Zm0 0" style="stroke:none"/></symbol><symbol id="A" overflow="visible"><path d="M.719 0v-7.203H2.89l1.312 4.906 1.281-4.906h2.188V0h-1.36v-5.672L4.892 0H3.484L2.063-5.672V0Zm0 0" style="stroke:none"/></symbol><symbol id="B" overflow="visible"><path d="M.719-5.922v-1.281h1.39v1.281zM.719 0v-5.219h1.39V0Zm0 0" style="stroke:none"/></symbol><symbol id="C" overflow="visible"><path d="M5.516 0H4.219v-.766q-.316.457-.75.672a2 2 0 0 1-.875.219q-.908.001-1.547-.719c-.43-.488-.64-1.164-.64-2.031q-.002-1.324.624-2.016.622-.686 1.578-.687.872.002 1.516.719v-2.594h1.39zM1.828-2.719c0 .555.07.953.219 1.203.226.368.539.547.937.547.32 0 .594-.133.813-.406q.328-.405.328-1.219 0-.89-.328-1.281a.99.99 0 0 0-.813-.406c-.336 0-.609.133-.828.39q-.328.393-.328 1.172m0 0" style="stroke:none"/></symbol><symbol id="D" overflow="visible"><path d="M.719 0v-7.203h1.39V0Zm0 0" style="stroke:none"/></symbol><symbol id="E" overflow="visible"><path d="m3.75-1.656 1.375.218q-.269.768-.844 1.172-.58.392-1.437.391-1.359 0-2.016-.89C.484-1.243.313-1.845.313-2.563Q.312-3.857.984-4.594q.686-.733 1.735-.734c.77 0 1.379.258 1.828.766q.669.767.64 2.343H1.735q.012.628.329.969.327.345.796.344a.85.85 0 0 0 .547-.172q.216-.187.344-.578m.078-1.406q-.019-.591-.312-.907a.96.96 0 0 0-.72-.312.96.96 0 0 0-.75.328q-.297.328-.28.89zm0 0" style="stroke:none"/></symbol><symbol id="F" overflow="visible"><path d="M.563-1.922v-1.375H3.28v1.375zm0 0" style="stroke:none"/></symbol><symbol id="G" overflow="visible"><path d="M5.469 0H4.094v-2.656c0-.57-.032-.938-.094-1.094a.83.83 0 0 0-.297-.39.76.76 0 0 0-.469-.141q-.362.002-.656.203a.96.96 0 0 0-.39.516q-.094.328-.094 1.203V0H.719v-5.219H2v.766q.669-.874 1.719-.875.452 0 .828.172.375.159.562.406.2.252.282.578.077.329.078.922zm0 0" style="stroke:none"/></symbol><symbol id="K" overflow="visible"><path d="M.734-7.203H3.61q.857 0 1.282.078.42.063.75.297.325.22.547.594.234.374.234.843 0 .504-.281.938c-.18.281-.422.492-.735.625q.656.188 1 .656a1.7 1.7 0 0 1 .36 1.078c0 .336-.079.656-.235.969a1.9 1.9 0 0 1-.625.734 2 2 0 0 1-.968.344Q4.574-.01 3.188 0H.733ZM2.188-6v1.656h.953q.856 0 1.062-.015.375-.047.578-.25Q5-4.825 5-5.187a.75.75 0 0 0-.187-.532c-.118-.144-.297-.234-.547-.265A32 32 0 0 0 3.03-6Zm0 2.86v1.921H3.53q.796 0 1-.047a.84.84 0 0 0 .532-.28.9.9 0 0 0 .203-.61.94.94 0 0 0-.157-.547.84.84 0 0 0-.453-.328c-.199-.07-.633-.11-1.297-.11Zm0 0" style="stroke:none"/></symbol><symbol id="L" overflow="visible"><path d="M1.75-3.625.5-3.859q.218-.748.734-1.11c.344-.238.852-.36 1.532-.36q.919.001 1.375.22.449.205.625.547.187.344.187 1.234l-.016 1.61q0 .688.063 1.015.075.328.25.703H3.89a9 9 0 0 1-.124-.406q-.05-.122-.063-.156-.345.345-.75.515a2.2 2.2 0 0 1-.86.172q-.812 0-1.28-.437-.456-.435-.454-1.11 0-.434.204-.781.217-.356.593-.531.388-.188 1.11-.328.966-.188 1.328-.344v-.14q-.002-.388-.203-.563-.188-.171-.735-.172-.362.002-.578.156-.205.142-.328.5M3.594-2.5a10 10 0 0 1-.828.203q-.58.128-.75.25c-.188.125-.282.29-.282.485 0 .187.07.355.22.5A.77.77 0 0 0 2.5-.86q.374 0 .719-.235a.9.9 0 0 0 .328-.468q.047-.17.047-.672zm0 0" style="stroke:none"/></symbol><symbol id="M" overflow="visible"><path d="m5.266-3.672-1.36.25q-.065-.42-.312-.625-.236-.201-.625-.203-.517 0-.828.36-.298.362-.297 1.187c0 .617.101 1.055.312 1.312q.312.392.828.391c.258 0 .473-.07.641-.219q.247-.232.36-.781l1.359.234c-.149.625-.418 1.102-.813 1.422q-.596.47-1.61.469-1.14.001-1.827-.719Q.42-1.326.422-2.609q0-1.279.672-2c.457-.477 1.078-.72 1.86-.72.632 0 1.14.138 1.515.407q.562.409.797 1.25m0 0" style="stroke:none"/></symbol><symbol id="N" overflow="visible"><path d="M.672 0v-7.203h1.375v3.828l1.625-1.844h1.703L3.594-3.312 5.5 0H4.016L2.703-2.344l-.656.672V0Zm0 0" style="stroke:none"/></symbol></defs><path d="M296.885 1.348h368.3v197.627h-368.3Zm0 0" style="fill:none;stroke:#1194d9;stroke-width:.898295;stroke-linecap:butt;stroke-linejoin:miter;stroke-miterlimit:4;stroke-opacity:1" transform="translate(-6.006 -.899)"/><path d="M144.175 1.348h152.71v197.627h-152.71Zm0 0" style="fill:none;stroke:#1194d9;stroke-width:.898295;stroke-linecap:butt;stroke-linejoin:miter;stroke-miterlimit:4;stroke-opacity:1" transform="translate(-6.006 -.899)"/><path d="M126.211 109.14h48.174" style="fill:none;stroke:#000;stroke-width:.898295;stroke-linecap:butt;stroke-linejoin:miter;stroke-miterlimit:10;stroke-opacity:1" transform="translate(-6.006 -.899)"/><path d="m179.102 109.14-6.29 3.145 1.573-3.144-1.572-3.14zm0 0" style="fill:#000;fill-opacity:1;fill-rule:nonzero;stroke:#000;stroke-width:.898295;stroke-linecap:butt;stroke-linejoin:miter;stroke-miterlimit:10;stroke-opacity:1" transform="translate(-6.006 -.899)"/><path d="M71.865 90.728h53.897v35.932H71.865Zm0 0" style="fill:#fff;fill-opacity:1;fill-rule:nonzero;stroke:#1194d9;stroke-width:1.79659;stroke-linecap:butt;stroke-linejoin:miter;stroke-miterlimit:4;stroke-opacity:1" transform="translate(-6.006 -.899)"/><g style="fill:#000;fill-opacity:1" transform="translate(-6.006 -.899)scale(1.25)"><use xlink:href="#a" width="100%" height="100%" x="62.274" y="89.829"/><use xlink:href="#b" width="100%" height="100%" x="64.271" y="89.829"/><use xlink:href="#c" width="100%" height="100%" x="69.461" y="89.829"/><use xlink:href="#b" width="100%" height="100%" x="71.457" y="89.829"/><use xlink:href="#d" width="100%" height="100%" x="76.647" y="89.829"/><use xlink:href="#e" width="100%" height="100%" x="80.644" y="89.829"/><use xlink:href="#f" width="100%" height="100%" x="84.64" y="89.829"/><use xlink:href="#d" width="100%" height="100%" x="89.03" y="89.829"/><use xlink:href="#g" width="100%" height="100%" x="93.027" y="89.829"/></g><path d="M234.004 109.14h30.21" style="fill:none;stroke:#000;stroke-width:.898295;stroke-linecap:butt;stroke-linejoin:miter;stroke-miterlimit:10;stroke-opacity:1" transform="translate(-6.006 -.899)"/><path d="m268.93 109.14-6.288 3.145 1.572-3.144-1.572-3.14zm0 0" style="fill:#000;fill-opacity:1;fill-rule:nonzero;stroke:#000;stroke-width:.898295;stroke-linecap:butt;stroke-linejoin:miter;stroke-miterlimit:10;stroke-opacity:1" transform="translate(-6.006 -.899)"/><path d="M179.658 90.728h53.897v35.932h-53.897zm0 0" style="fill:#fff;fill-opacity:1;fill-rule:nonzero;stroke:#1194d9;stroke-width:1.79659;stroke-linecap:butt;stroke-linejoin:miter;stroke-miterlimit:4;stroke-opacity:1" transform="translate(-6.006 -.899)"/><g style="fill:#000;fill-opacity:1" transform="translate(-6.006 -.899)scale(1.25)"><use xlink:href="#a" width="100%" height="100%" x="161.693" y="85.518"/><use xlink:href="#b" width="100%" height="100%" x="163.69" y="85.518"/></g><g style="fill:#000;fill-opacity:1" transform="translate(-6.006 -.899)scale(1.25)"><use xlink:href="#h" width="100%" height="100%" x="148.713" y="94.86"/><use xlink:href="#i" width="100%" height="100%" x="154.302" y="94.86"/><use xlink:href="#j" width="100%" height="100%" x="158.692" y="94.86"/><use xlink:href="#k" width="100%" height="100%" x="161.085" y="94.86"/><use xlink:href="#l" width="100%" height="100%" x="163.082" y="94.86"/><use xlink:href="#k" width="100%" height="100%" x="169.472" y="94.86"/><use xlink:href="#m" width="100%" height="100%" x="171.468" y="94.86"/><use xlink:href="#d" width="100%" height="100%" x="175.061" y="94.86"/><use xlink:href="#g" width="100%" height="100%" x="179.058" y="94.86"/></g><path d="M323.833 109.14h21.23" style="fill:none;stroke:#000;stroke-width:.898295;stroke-linecap:butt;stroke-linejoin:miter;stroke-miterlimit:10;stroke-opacity:1" transform="translate(-6.006 -.899)"/><path d="m349.78 109.14-6.289 3.145 1.573-3.144-1.573-3.14zm0 0" style="fill:#000;fill-opacity:1;fill-rule:nonzero;stroke:#000;stroke-width:.898295;stroke-linecap:butt;stroke-linejoin:miter;stroke-miterlimit:10;stroke-opacity:1" transform="translate(-6.006 -.899)"/><path d="M269.487 90.728h53.897v35.932h-53.897zm0 0" style="fill:#fff;fill-opacity:1;fill-rule:nonzero;stroke:#1194d9;stroke-width:1.79659;stroke-linecap:butt;stroke-linejoin:miter;stroke-miterlimit:4;stroke-opacity:1" transform="translate(-6.006 -.899)"/><g style="fill:#000;fill-opacity:1" transform="translate(-6.006 -.899)scale(1.25)"><use xlink:href="#n" width="100%" height="100%" x="230.559" y="85.518"/><use xlink:href="#a" width="100%" height="100%" x="236.545" y="85.518"/><use xlink:href="#b" width="100%" height="100%" x="238.541" y="85.518"/></g><g style="fill:#000;fill-opacity:1" transform="translate(-6.006 -.899)scale(1.25)"><use xlink:href="#o" width="100%" height="100%" x="219.97" y="94.86"/><use xlink:href="#d" width="100%" height="100%" x="225.56" y="94.86"/><use xlink:href="#p" width="100%" height="100%" x="229.556" y="94.86"/><use xlink:href="#d" width="100%" height="100%" x="233.946" y="94.86"/><use xlink:href="#g" width="100%" height="100%" x="237.943" y="94.86"/><use xlink:href="#e" width="100%" height="100%" x="240.739" y="94.86"/><use xlink:href="#j" width="100%" height="100%" x="244.736" y="94.86"/><use xlink:href="#q" width="100%" height="100%" x="247.129" y="94.86"/><use xlink:href="#g" width="100%" height="100%" x="251.519" y="94.86"/></g><path d="M404.683 122.617v7.754" style="fill:none;stroke:#000;stroke-width:.898295;stroke-linecap:butt;stroke-linejoin:miter;stroke-miterlimit:10;stroke-opacity:1" transform="translate(-6.006 -.899)"/><path d="m404.683 135.088-3.145-6.29 3.145 1.573 3.144-1.572zm0 0" style="fill:#000;fill-opacity:1;fill-rule:nonzero;stroke:#000;stroke-width:.898295;stroke-linecap:butt;stroke-linejoin:miter;stroke-miterlimit:10;stroke-opacity:1" transform="translate(-6.006 -.899)"/><path d="M359.317 95.22h89.829v26.948h-89.83zm0 0" style="fill:#fff;fill-opacity:1;fill-rule:nonzero;stroke:#1194d9;stroke-width:1.79659;stroke-linecap:butt;stroke-linejoin:miter;stroke-miterlimit:4;stroke-opacity:1" transform="translate(-6.006 -.899)"/><g style="fill:#000;fill-opacity:1" transform="translate(-6.006 -.899)scale(1.25)"><use xlink:href="#b" width="100%" height="100%" x="292.563" y="89.829"/><use xlink:href="#d" width="100%" height="100%" x="297.753" y="89.829"/><use xlink:href="#r" width="100%" height="100%" x="301.75" y="89.829"/><use xlink:href="#k" width="100%" height="100%" x="306.14" y="89.829"/><use xlink:href="#s" width="100%" height="100%" x="308.136" y="89.829"/><use xlink:href="#j" width="100%" height="100%" x="312.133" y="89.829"/><use xlink:href="#d" width="100%" height="100%" x="314.526" y="89.829"/><use xlink:href="#g" width="100%" height="100%" x="318.523" y="89.829"/><use xlink:href="#c" width="100%" height="100%" x="321.319" y="89.829"/></g><g style="fill:#000;fill-opacity:1" transform="translate(-6.006 -.899)scale(1.25)"><use xlink:href="#t" width="100%" height="100%" x="323.049" y="89.829"/><use xlink:href="#u" width="100%" height="100%" x="328.239" y="89.829"/><use xlink:href="#u" width="100%" height="100%" x="330.236" y="89.829"/><use xlink:href="#q" width="100%" height="100%" x="332.232" y="89.829"/><use xlink:href="#v" width="100%" height="100%" x="336.622" y="89.829"/><use xlink:href="#e" width="100%" height="100%" x="340.619" y="89.829"/><use xlink:href="#j" width="100%" height="100%" x="344.615" y="89.829"/><use xlink:href="#q" width="100%" height="100%" x="347.008" y="89.829"/><use xlink:href="#g" width="100%" height="100%" x="351.398" y="89.829"/></g><path d="M404.683 82.192v7.754" style="fill:none;stroke:#000;stroke-width:.898295;stroke-linecap:butt;stroke-linejoin:miter;stroke-miterlimit:10;stroke-opacity:1" transform="translate(-6.006 -.899)"/><path d="m404.683 94.663-3.145-6.289 3.145 1.572 3.144-1.572zm0 0" style="fill:#000;fill-opacity:1;fill-rule:nonzero;stroke:#000;stroke-width:.898295;stroke-linecap:butt;stroke-linejoin:miter;stroke-miterlimit:10;stroke-opacity:1" transform="translate(-6.006 -.899)"/><path d="M359.317 54.795h89.829v26.948h-89.83zm0 0" style="fill:#fff;fill-opacity:1;fill-rule:nonzero;stroke:#1194d9;stroke-width:1.79659;stroke-linecap:butt;stroke-linejoin:miter;stroke-miterlimit:4;stroke-opacity:1" transform="translate(-6.006 -.899)"/><g style="fill:#000;fill-opacity:1" transform="translate(-6.006 -.899)scale(1.25)"><use xlink:href="#n" width="100%" height="100%" x="299.222" y="57.491"/><use xlink:href="#a" width="100%" height="100%" x="305.208" y="57.491"/><use xlink:href="#b" width="100%" height="100%" x="307.205" y="57.491"/><use xlink:href="#c" width="100%" height="100%" x="312.395" y="57.491"/><use xlink:href="#h" width="100%" height="100%" x="314.391" y="57.491"/><use xlink:href="#i" width="100%" height="100%" x="319.981" y="57.491"/><use xlink:href="#j" width="100%" height="100%" x="324.371" y="57.491"/><use xlink:href="#k" width="100%" height="100%" x="326.764" y="57.491"/><use xlink:href="#l" width="100%" height="100%" x="328.76" y="57.491"/><use xlink:href="#k" width="100%" height="100%" x="335.15" y="57.491"/><use xlink:href="#m" width="100%" height="100%" x="337.147" y="57.491"/><use xlink:href="#d" width="100%" height="100%" x="340.74" y="57.491"/><use xlink:href="#g" width="100%" height="100%" x="344.737" y="57.491"/></g><path d="M359.317 135.645h89.829v26.948h-89.83zm0 0" style="fill:#fff;fill-opacity:1;fill-rule:nonzero;stroke:#1194d9;stroke-width:1.79659;stroke-linecap:butt;stroke-linejoin:miter;stroke-miterlimit:4;stroke-opacity:1" transform="translate(-6.006 -.899)"/><g style="fill:#000;fill-opacity:1" transform="translate(-6.006 -.899)scale(1.25)"><use xlink:href="#n" width="100%" height="100%" x="299.222" y="122.168"/><use xlink:href="#a" width="100%" height="100%" x="305.208" y="122.168"/><use xlink:href="#b" width="100%" height="100%" x="307.205" y="122.168"/><use xlink:href="#c" width="100%" height="100%" x="312.395" y="122.168"/><use xlink:href="#h" width="100%" height="100%" x="314.391" y="122.168"/><use xlink:href="#i" width="100%" height="100%" x="319.981" y="122.168"/><use xlink:href="#j" width="100%" height="100%" x="324.371" y="122.168"/><use xlink:href="#k" width="100%" height="100%" x="326.764" y="122.168"/><use xlink:href="#l" width="100%" height="100%" x="328.76" y="122.168"/><use xlink:href="#k" width="100%" height="100%" x="335.15" y="122.168"/><use xlink:href="#m" width="100%" height="100%" x="337.147" y="122.168"/><use xlink:href="#d" width="100%" height="100%" x="340.74" y="122.168"/><use xlink:href="#g" width="100%" height="100%" x="344.737" y="122.168"/></g><path d="M458.58 109.14h21.225" style="fill:none;stroke:#000;stroke-width:.898295;stroke-linecap:butt;stroke-linejoin:miter;stroke-miterlimit:10;stroke-opacity:1" transform="translate(-6.006 -.899)"/><path d="m484.522 109.14-6.29 3.145 1.573-3.144-1.572-3.14zm0 0" style="fill:#000;fill-opacity:1;fill-rule:nonzero;stroke:#000;stroke-width:.898295;stroke-linecap:butt;stroke-linejoin:miter;stroke-miterlimit:10;stroke-opacity:1" transform="translate(-6.006 -.899)"/><path d="M350.786 46.26H458.58v125.762H350.786Zm0 0" style="fill:none;stroke:#1194d9;stroke-width:.898295;stroke-linecap:butt;stroke-linejoin:miter;stroke-miterlimit:4;stroke-opacity:1" transform="translate(-6.006 -.899)"/><path d="M539.424 109.14h30.21" style="fill:none;stroke:#000;stroke-width:.898295;stroke-linecap:butt;stroke-linejoin:miter;stroke-miterlimit:10;stroke-opacity:1" transform="translate(-6.006 -.899)"/><path d="m574.35 109.14-6.288 3.145 1.572-3.144-1.572-3.14zm0 0" style="fill:#000;fill-opacity:1;fill-rule:nonzero;stroke:#000;stroke-width:.898295;stroke-linecap:butt;stroke-linejoin:miter;stroke-miterlimit:10;stroke-opacity:1" transform="translate(-6.006 -.899)"/><path d="M485.078 90.728h53.897v35.932h-53.897zm0 0" style="fill:#fff;fill-opacity:1;fill-rule:nonzero;stroke:#1194d9;stroke-width:1.79659;stroke-linecap:butt;stroke-linejoin:miter;stroke-miterlimit:4;stroke-opacity:1" transform="translate(-6.006 -.899)"/><g style="fill:#000;fill-opacity:1" transform="translate(-6.006 -.899)scale(1.25)"><use xlink:href="#n" width="100%" height="100%" x="404.03" y="85.518"/><use xlink:href="#w" width="100%" height="100%" x="410.017" y="85.518"/></g><g style="fill:#000;fill-opacity:1" transform="translate(-6.006 -.899)scale(1.25)"><use xlink:href="#o" width="100%" height="100%" x="392.442" y="94.86"/><use xlink:href="#d" width="100%" height="100%" x="398.032" y="94.86"/><use xlink:href="#p" width="100%" height="100%" x="402.029" y="94.86"/><use xlink:href="#d" width="100%" height="100%" x="406.419" y="94.86"/><use xlink:href="#g" width="100%" height="100%" x="410.415" y="94.86"/><use xlink:href="#e" width="100%" height="100%" x="413.212" y="94.86"/><use xlink:href="#j" width="100%" height="100%" x="417.209" y="94.86"/><use xlink:href="#q" width="100%" height="100%" x="419.602" y="94.86"/><use xlink:href="#g" width="100%" height="100%" x="423.992" y="94.86"/></g><path d="M54.346 109.14h12.246" style="fill:none;stroke:#000;stroke-width:.898295;stroke-linecap:butt;stroke-linejoin:miter;stroke-miterlimit:10;stroke-opacity:1" transform="translate(-6.006 -.899)"/><path d="m71.309 109.14-6.29 3.145 1.573-3.144L65.02 106zm0 0" style="fill:#000;fill-opacity:1;fill-rule:nonzero;stroke:#000;stroke-width:.898295;stroke-linecap:butt;stroke-linejoin:miter;stroke-miterlimit:10;stroke-opacity:1" transform="translate(-6.006 -.899)"/><use xlink:href="#x" width="100%" height="100%" x="4.649" y="89.829" style="fill:#000;fill-opacity:1" transform="translate(-6.006 -.899)scale(1.25)"/><g style="fill:#000;fill-opacity:1" transform="translate(-6.006 -.899)scale(1.25)"><use xlink:href="#d" width="100%" height="100%" x="8.505" y="89.829"/><use xlink:href="#y" width="100%" height="100%" x="12.502" y="89.829"/><use xlink:href="#j" width="100%" height="100%" x="16.498" y="89.829"/><use xlink:href="#z" width="100%" height="100%" x="18.892" y="89.829"/><use xlink:href="#e" width="100%" height="100%" x="23.281" y="89.829"/><use xlink:href="#u" width="100%" height="100%" x="27.278" y="89.829"/><use xlink:href="#c" width="100%" height="100%" x="29.275" y="89.829"/><use xlink:href="#a" width="100%" height="100%" x="31.271" y="89.829"/><use xlink:href="#b" width="100%" height="100%" x="33.268" y="89.829"/></g><g style="fill:#000;fill-opacity:1" transform="translate(-6.006 -.899)scale(1.25)"><use xlink:href="#A" width="100%" height="100%" x="149.51" y="19.403"/><use xlink:href="#B" width="100%" height="100%" x="157.891" y="19.403"/><use xlink:href="#C" width="100%" height="100%" x="160.686" y="19.403"/><use xlink:href="#C" width="100%" height="100%" x="166.832" y="19.403"/><use xlink:href="#D" width="100%" height="100%" x="172.977" y="19.403"/><use xlink:href="#E" width="100%" height="100%" x="175.772" y="19.403"/><use xlink:href="#F" width="100%" height="100%" x="181.368" y="19.403"/><use xlink:href="#E" width="100%" height="100%" x="184.718" y="19.403"/><use xlink:href="#G" width="100%" height="100%" x="190.314" y="19.403"/><use xlink:href="#C" width="100%" height="100%" x="196.459" y="19.403"/></g><g style="fill:#000;fill-opacity:1" transform="translate(-6.006 -.899)scale(1.25)"><use xlink:href="#a" width="100%" height="100%" x="125.761" y="82.643"/><use xlink:href="#b" width="100%" height="100%" x="127.758" y="82.643"/></g><g style="fill:#000;fill-opacity:1" transform="translate(-6.006 -.899)scale(1.25)"><use xlink:href="#n" width="100%" height="100%" x="262.897" y="82.643"/><use xlink:href="#a" width="100%" height="100%" x="268.883" y="82.643"/><use xlink:href="#b" width="100%" height="100%" x="270.88" y="82.643"/></g><g style="fill:#000;fill-opacity:1" transform="translate(-6.006 -.899)scale(1.25)"><use xlink:href="#n" width="100%" height="100%" x="370.692" y="82.643"/><use xlink:href="#a" width="100%" height="100%" x="376.679" y="82.643"/><use xlink:href="#b" width="100%" height="100%" x="378.675" y="82.643"/></g><path d="M629.258 109.14h48.174" style="fill:none;stroke:#000;stroke-width:.898295;stroke-linecap:butt;stroke-linejoin:miter;stroke-miterlimit:10;stroke-opacity:1" transform="translate(-6.006 -.899)"/><path d="m682.149 109.14-6.29 3.145 1.573-3.144-1.572-3.14zm0 0" style="fill:#000;fill-opacity:1;fill-rule:nonzero;stroke:#000;stroke-width:.898295;stroke-linecap:butt;stroke-linejoin:miter;stroke-miterlimit:10;stroke-opacity:1" transform="translate(-6.006 -.899)"/><g style="fill:#000;fill-opacity:1" transform="translate(-6.006 -.899)scale(1.25)"><use xlink:href="#t" width="100%" height="100%" x="550.744" y="85.518"/><use xlink:href="#s" width="100%" height="100%" x="555.934" y="85.518"/><use xlink:href="#s" width="100%" height="100%" x="559.931" y="85.518"/><use xlink:href="#d" width="100%" height="100%" x="563.928" y="85.518"/><use xlink:href="#l" width="100%" height="100%" x="567.924" y="85.518"/><use xlink:href="#H" width="100%" height="100%" x="574.314" y="85.518"/><use xlink:href="#u" width="100%" height="100%" x="578.704" y="85.518"/><use xlink:href="#I" width="100%" height="100%" x="580.7" y="85.518"/></g><g style="fill:#000;fill-opacity:1" transform="translate(-6.006 -.899)scale(1.25)"><use xlink:href="#J" width="100%" height="100%" x="552.945" y="94.86"/><use xlink:href="#g" width="100%" height="100%" x="557.739" y="94.86"/><use xlink:href="#q" width="100%" height="100%" x="560.535" y="94.86"/><use xlink:href="#r" width="100%" height="100%" x="564.925" y="94.86"/><use xlink:href="#g" width="100%" height="100%" x="569.315" y="94.86"/><use xlink:href="#e" width="100%" height="100%" x="572.111" y="94.86"/><use xlink:href="#l" width="100%" height="100%" x="576.108" y="94.86"/></g><path d="M574.907 90.728h53.902v35.932h-53.902zm0 0" style="fill:#fff;fill-opacity:1;fill-rule:nonzero;stroke:#1194d9;stroke-width:1.79659;stroke-linecap:butt;stroke-linejoin:miter;stroke-miterlimit:4;stroke-opacity:1" transform="translate(-6.006 -.899)"/><g style="fill:#000;fill-opacity:1" transform="translate(-6.006 -.899)scale(1.25)"><use xlink:href="#n" width="100%" height="100%" x="475.894" y="85.518"/><use xlink:href="#w" width="100%" height="100%" x="481.88" y="85.518"/></g><g style="fill:#000;fill-opacity:1" transform="translate(-6.006 -.899)scale(1.25)"><use xlink:href="#h" width="100%" height="100%" x="464.912" y="94.86"/><use xlink:href="#i" width="100%" height="100%" x="470.502" y="94.86"/><use xlink:href="#j" width="100%" height="100%" x="474.892" y="94.86"/><use xlink:href="#k" width="100%" height="100%" x="477.285" y="94.86"/><use xlink:href="#l" width="100%" height="100%" x="479.282" y="94.86"/><use xlink:href="#k" width="100%" height="100%" x="485.671" y="94.86"/><use xlink:href="#m" width="100%" height="100%" x="487.668" y="94.86"/><use xlink:href="#d" width="100%" height="100%" x="491.261" y="94.86"/><use xlink:href="#g" width="100%" height="100%" x="495.258" y="94.86"/></g><g style="fill:#000;fill-opacity:1" transform="translate(-6.006 -.899)scale(1.25)"><use xlink:href="#n" width="100%" height="100%" x="439.962" y="82.643"/><use xlink:href="#w" width="100%" height="100%" x="445.949" y="82.643"/></g><g style="fill:#000;fill-opacity:1" transform="translate(-6.006 -.899)scale(1.25)"><use xlink:href="#n" width="100%" height="100%" x="511.826" y="82.643"/><use xlink:href="#w" width="100%" height="100%" x="517.812" y="82.643"/></g><g style="fill:#000;fill-opacity:1" transform="translate(-6.006 -.899)scale(1.25)"><use xlink:href="#a" width="100%" height="100%" x="197.625" y="82.643"/><use xlink:href="#b" width="100%" height="100%" x="199.621" y="82.643"/></g><g style="fill:#000;fill-opacity:1" transform="translate(-6.006 -.899)scale(1.25)"><use xlink:href="#K" width="100%" height="100%" x="363.495" y="19.403"/><use xlink:href="#L" width="100%" height="100%" x="370.761" y="19.403"/><use xlink:href="#M" width="100%" height="100%" x="376.356" y="19.403"/><use xlink:href="#N" width="100%" height="100%" x="381.951" y="19.403"/><use xlink:href="#E" width="100%" height="100%" x="387.547" y="19.403"/><use xlink:href="#G" width="100%" height="100%" x="393.142" y="19.403"/><use xlink:href="#C" width="100%" height="100%" x="399.288" y="19.403"/></g></svg>